# xmcd
# 
# Track frame offsets:
#     150
#     10503
#     21718
#     32186
#     46124
#     60060
#     71073
#     82758
#     93066
#     105893
#     118265
#     132827
#     149798
#     161089
#     177852
#     187814
#     198234
# 
# Disc length: 2823
# 
# Revision: 4
# Processed by: cddbd v1.5.2PL0 Copyright (c) Steve Scherf et al.
# Submitted via: fre:ac v1.0.27
# 
DISCID=d50b0511
DTITLE=Various Artist - The World Of Truckers CD2
DYEAR=1997
DGENRE=Country
TTITLE0=Jonny Hill - King Of The Road
TTITLE1=Bobby Bare - That´s How I Got To Memphis
TTITLE2=Freddy Quinn - The Yellow Rose Of Texas
TTITLE3=Barbara Perry - What Can't Woman Have A Good Beer Drinking Song
TTITLE4=Dave Dudley - Morning Sun
TTITLE5=Freddy Quinn - Some Broken Hearts Never Mend
TTITLE6=Ferlin Husky - Money Greases The Wheels
TTITLE7=Linda Menning - Bonjour Tristesse (Hello Sadness)
TTITLE8=Ronnie Rogers - Dan D. Derby
TTITLE9=George Kent - The Great South State Truckstop Disaster
TTITLE10=Dave Dudley - Deutschland Autobahn
TTITLE11=Bobby Bare - Sylvia's Mother
TTITLE12=David Price - The Lonesome Truck Driver's Waltz
TTITLE13=Freddy Quinn - Help Me Make It Through The Night
TTITLE14=Bobby Bare - West Virginia Woman
TTITLE15=Dave Dudley - Rollin' Big
TTITLE16=Billy Grammer - The Hour Of Separation
EXTD=
EXTT0=
EXTT1=
EXTT2=
EXTT3=
EXTT4=
EXTT5=
EXTT6=
EXTT7=
EXTT8=
EXTT9=
EXTT10=
EXTT11=
EXTT12=
EXTT13=
EXTT14=
EXTT15=
EXTT16=
PLAYORDER=
